# xmcd
# 
# Track frame offsets:
#     150
#     24622
#     52790
#     78605
#     97832
#     109656
#     132479
#     163043
# 
# Disc length: 2469
# 
# Revision: 0
# Processed by: cddbd v1.5.2PL0 Copyright (c) Steve Scherf et al.
# Submitted via: fre:ac v1.0.17
# 
DISCID=5c09a308
DTITLE=Kaipa - Händer
DYEAR=1980
DGENRE=Progressive Rock
TTITLE0=Äntligen
TTITLE1=Händer
TTITLE2=Regn
TTITLE3=Staden Lever
TTITLE4=Elgrandi
TTITLE5=Krig
TTITLE6=Älska Med Mig Igen
TTITLE7=Med Trasiga Segel
EXTD=
EXTT0=
EXTT1=
EXTT2=
EXTT3=
EXTT4=
EXTT5=
EXTT6=
EXTT7=
PLAYORDER=
